<?xml version="1.0" standalone="no"?>
<!DOCTYPE svg PUBLIC "-//W3C//DTD SVG 20010904//EN"
 "http://www.w3.org/TR/2001/REC-SVG-20010904/DTD/svg10.dtd">
<svg version="1.0" xmlns="http://www.w3.org/2000/svg"
 width="262.000000pt" height="262.000000pt" viewBox="0 0 262.000000 262.000000"
 preserveAspectRatio="xMidYMid meet">
<metadata>
Created by potrace 1.11, written by Peter Selinger 2001-2013
</metadata>
<g transform="translate(0.000000,262.000000) scale(0.100000,-0.100000)"
fill="#000000" stroke="none">
<path d="M324 2582 c2 -4 61 -8 131 -7 69 0 129 -2 134 -5 4 -3 92 -232 195
-510 104 -278 278 -745 387 -1038 110 -293 199 -543 199 -555 0 -13 -6 -31
-13 -41 -12 -16 -17 -10 -44 65 -17 46 -117 307 -223 579 -105 272 -239 620
-298 773 l-106 277 -278 0 c-153 0 -278 -3 -278 -8 0 -4 60 -7 133 -7 l132 0
3 -1035 2 -1036 -135 1 c-74 0 -135 -3 -135 -7 0 -4 127 -8 283 -8 155 0 276
4 270 8 -7 4 -67 8 -134 7 -74 -1 -123 3 -127 10 -7 11 -11 1995 -4 2009 3 4
12 -14 22 -40 30 -83 331 -878 340 -899 5 -11 100 -258 211 -550 110 -292 205
-534 210 -540 14 -14 20 -2 105 225 42 113 80 210 84 215 10 13 43 100 292
775 27 74 60 162 73 195 13 33 67 176 120 319 110 292 124 327 125 306 1 -15
1 -1883 0 -1975 l0 -50 -131 0 c-72 0 -133 -3 -135 -7 -3 -5 183 -8 412 -8
230 0 414 3 410 7 -4 5 -65 8 -134 8 l-127 0 0 1035 0 1035 133 0 c72 0 132 3
132 7 0 5 -124 8 -275 8 -151 0 -275 2 -275 5 0 5 68 195 94 265 8 19 26 68
41 108 16 39 33 73 39 73 6 1 45 2 88 3 42 0 80 4 84 9 4 4 -90 7 -210 7 -119
0 -215 -4 -212 -8 2 -4 54 -7 114 -7 l109 1 -8 -26 c-4 -14 -38 -106 -74 -205
-233 -627 -329 -885 -344 -925 -10 -25 -60 -158 -112 -297 -51 -139 -97 -249
-100 -245 -4 4 -84 212 -177 462 -93 250 -220 590 -282 755 -62 165 -127 341
-145 390 l-33 90 134 0 c74 0 134 3 134 7 0 4 -187 8 -416 8 -228 0 -413 -4
-410 -8z"/>
</g>
</svg>
